 <svg  version="1.0" xmlns="http://www.w3.org/2000/svg"  width="300.000000pt" height="299.000000pt" viewBox="0 0 300.000000 299.000000"  preserveAspectRatio="xMidYMid meet">  <g transform="translate(0.000000,299.000000) scale(0.100000,-0.100000)" fill="#505050" stroke="none"> <path d="M1380 2969 c-694 -64 -1229 -568 -1340 -1264 -16 -101 -14 -334 4 -445 52 -317 189 -583 421 -815 219 -219 443 -340 755 -406 151 -32 419 -32 570 0 314 67 535 186 755 406 209 209 325 411 396 692 177 700 -190 1440 -852 1719 -220 93 -480 134 -709 113z m268 -1081 l2 -258 255 0 255 0 0 -140 0 -140 -255 0 -255 0 0 -255 0 -256 -142 3 -143 3 -3 252 -2 253 -253 2 -252 3 -3 138 -3 137 256 0 255 0 0 253 c0 140 3 257 7 261 4 3 68 5 142 4 l136 -3 3 -257z"/> </g> </svg> 